<mxfile><diagram id="WUwkUBz2XZs08emSQizo" name="Page-1"><mxGraphModel dx="952" dy="792" grid="1" gridSize="10" guides="1" tooltips="1" connect="1" arrows="1" fold="1" page="1" pageScale="1" pageWidth="850" pageHeight="1100" math="0" shadow="0"><root><mxCell id="0"/><mxCell id="1" parent="0"/><mxCell id="15" value="" style="shape=tableRow;horizontal=0;startSize=0;swimlaneHead=0;swimlaneBody=0;fillColor=none;collapsible=0;dropTarget=0;points=[[0,0.5],[1,0.5]];portConstraint=eastwest;top=0;left=0;right=0;bottom=0;" vertex="1" parent="1"><mxGeometry x="340" y="340" width="180" height="30" as="geometry"/></mxCell><mxCell id="16" value="" style="shape=partialRectangle;connectable=0;fillColor=none;top=0;left=0;bottom=0;right=0;editable=1;overflow=hidden;" vertex="1" parent="15"><mxGeometry width="30" height="30" as="geometry"><mxRectangle width="30" height="30" as="alternateBounds"/></mxGeometry></mxCell><mxCell id="18" value="VENDEDOR" style="shape=table;startSize=30;container=1;collapsible=1;childLayout=tableLayout;fixedRows=1;rowLines=0;fontStyle=1;align=center;resizeLast=1;strokeWidth=1;" vertex="1" parent="1"><mxGeometry x="360" y="330" width="270" height="200" as="geometry"/></mxCell><mxCell id="19" value="" style="shape=tableRow;horizontal=0;startSize=0;swimlaneHead=0;swimlaneBody=0;fillColor=none;collapsible=0;dropTarget=0;points=[[0,0.5],[1,0.5]];portConstraint=eastwest;top=0;left=0;right=0;bottom=1;" vertex="1" parent="18"><mxGeometry y="30" width="270" height="30" as="geometry"/></mxCell><mxCell id="20" value="PK" style="shape=partialRectangle;connectable=0;fillColor=none;top=0;left=0;bottom=0;right=0;fontStyle=1;overflow=hidden;" vertex="1" parent="19"><mxGeometry width="30" height="30" as="geometry"><mxRectangle width="30" height="30" as="alternateBounds"/></mxGeometry></mxCell><mxCell id="21" value="ID VENDEDOR" style="shape=partialRectangle;connectable=0;fillColor=none;top=0;left=0;bottom=0;right=0;align=left;spacingLeft=6;fontStyle=5;overflow=hidden;" vertex="1" parent="19"><mxGeometry x="30" width="240" height="30" as="geometry"><mxRectangle width="240" height="30" as="alternateBounds"/></mxGeometry></mxCell><mxCell id="25" value="" style="shape=tableRow;horizontal=0;startSize=0;swimlaneHead=0;swimlaneBody=0;fillColor=none;collapsible=0;dropTarget=0;points=[[0,0.5],[1,0.5]];portConstraint=eastwest;top=0;left=0;right=0;bottom=0;" vertex="1" parent="18"><mxGeometry y="60" width="270" height="30" as="geometry"/></mxCell><mxCell id="26" value="" style="shape=partialRectangle;connectable=0;fillColor=none;top=0;left=0;bottom=0;right=0;editable=1;overflow=hidden;" vertex="1" parent="25"><mxGeometry width="30" height="30" as="geometry"><mxRectangle width="30" height="30" as="alternateBounds"/></mxGeometry></mxCell><mxCell id="27" value="" style="shape=partialRectangle;connectable=0;fillColor=none;top=0;left=0;bottom=0;right=0;align=left;spacingLeft=6;overflow=hidden;" vertex="1" parent="25"><mxGeometry x="30" width="240" height="30" as="geometry"><mxRectangle width="240" height="30" as="alternateBounds"/></mxGeometry></mxCell><mxCell id="22" value="" style="shape=tableRow;horizontal=0;startSize=0;swimlaneHead=0;swimlaneBody=0;fillColor=none;collapsible=0;dropTarget=0;points=[[0,0.5],[1,0.5]];portConstraint=eastwest;top=0;left=0;right=0;bottom=0;" vertex="1" parent="18"><mxGeometry y="90" width="270" height="30" as="geometry"/></mxCell><mxCell id="23" value="" style="shape=partialRectangle;connectable=0;fillColor=none;top=0;left=0;bottom=0;right=0;editable=1;overflow=hidden;" vertex="1" parent="22"><mxGeometry width="30" height="30" as="geometry"><mxRectangle width="30" height="30" as="alternateBounds"/></mxGeometry></mxCell><mxCell id="24" value="FECHA CONTRATACION    " style="shape=partialRectangle;connectable=0;fillColor=none;top=0;left=0;bottom=0;right=0;align=left;spacingLeft=6;overflow=hidden;" vertex="1" parent="22"><mxGeometry x="30" width="240" height="30" as="geometry"><mxRectangle width="240" height="30" as="alternateBounds"/></mxGeometry></mxCell><mxCell id="28" value="" style="shape=tableRow;horizontal=0;startSize=0;swimlaneHead=0;swimlaneBody=0;fillColor=none;collapsible=0;dropTarget=0;points=[[0,0.5],[1,0.5]];portConstraint=eastwest;top=0;left=0;right=0;bottom=0;" vertex="1" parent="18"><mxGeometry y="120" width="270" height="30" as="geometry"/></mxCell><mxCell id="29" value="" style="shape=partialRectangle;connectable=0;fillColor=none;top=0;left=0;bottom=0;right=0;editable=1;overflow=hidden;" vertex="1" parent="28"><mxGeometry width="30" height="30" as="geometry"><mxRectangle width="30" height="30" as="alternateBounds"/></mxGeometry></mxCell><mxCell id="30" value="" style="shape=partialRectangle;connectable=0;fillColor=none;top=0;left=0;bottom=0;right=0;align=left;spacingLeft=6;overflow=hidden;" vertex="1" parent="28"><mxGeometry x="30" width="240" height="30" as="geometry"><mxRectangle width="240" height="30" as="alternateBounds"/></mxGeometry></mxCell><mxCell id="TUSlKA904p2KACR7ByrP-38" value="" style="shape=tableRow;horizontal=0;startSize=0;swimlaneHead=0;swimlaneBody=0;fillColor=none;collapsible=0;dropTarget=0;points=[[0,0.5],[1,0.5]];portConstraint=eastwest;top=0;left=0;right=0;bottom=1;strokeWidth=1;" vertex="1" parent="18"><mxGeometry y="150" width="270" height="30" as="geometry"/></mxCell><mxCell id="TUSlKA904p2KACR7ByrP-39" value="FK" style="shape=partialRectangle;connectable=0;fillColor=none;top=0;left=0;bottom=0;right=0;fontStyle=1;overflow=hidden;strokeWidth=1;" vertex="1" parent="TUSlKA904p2KACR7ByrP-38"><mxGeometry width="30" height="30" as="geometry"><mxRectangle width="30" height="30" as="alternateBounds"/></mxGeometry></mxCell><mxCell id="TUSlKA904p2KACR7ByrP-40" value="ID CLIENTE" style="shape=partialRectangle;connectable=0;fillColor=none;top=0;left=0;bottom=0;right=0;align=left;spacingLeft=6;fontStyle=5;overflow=hidden;strokeWidth=1;" vertex="1" parent="TUSlKA904p2KACR7ByrP-38"><mxGeometry x="30" width="240" height="30" as="geometry"><mxRectangle width="240" height="30" as="alternateBounds"/></mxGeometry></mxCell><mxCell id="TUSlKA904p2KACR7ByrP-42" value="" style="shape=tableRow;horizontal=0;startSize=0;swimlaneHead=0;swimlaneBody=0;fillColor=none;collapsible=0;dropTarget=0;points=[[0,0.5],[1,0.5]];portConstraint=eastwest;top=0;left=0;right=0;bottom=1;strokeWidth=1;" vertex="1" parent="18"><mxGeometry y="180" width="270" height="20" as="geometry"/></mxCell><mxCell id="TUSlKA904p2KACR7ByrP-43" value="FK" style="shape=partialRectangle;connectable=0;fillColor=none;top=0;left=0;bottom=0;right=0;fontStyle=1;overflow=hidden;strokeWidth=1;" vertex="1" parent="TUSlKA904p2KACR7ByrP-42"><mxGeometry width="30" height="20" as="geometry"><mxRectangle width="30" height="20" as="alternateBounds"/></mxGeometry></mxCell><mxCell id="TUSlKA904p2KACR7ByrP-44" value="ID DATOS PERSONALES" style="shape=partialRectangle;connectable=0;fillColor=none;top=0;left=0;bottom=0;right=0;align=left;spacingLeft=6;fontStyle=5;overflow=hidden;strokeWidth=1;" vertex="1" parent="TUSlKA904p2KACR7ByrP-42"><mxGeometry x="30" width="240" height="20" as="geometry"><mxRectangle width="240" height="20" as="alternateBounds"/></mxGeometry></mxCell><mxCell id="TUSlKA904p2KACR7ByrP-30" value="" style="shape=tableRow;horizontal=0;startSize=0;swimlaneHead=0;swimlaneBody=0;fillColor=none;collapsible=0;dropTarget=0;points=[[0,0.5],[1,0.5]];portConstraint=eastwest;top=0;left=0;right=0;bottom=0;" vertex="1" parent="1"><mxGeometry x="360" y="480" width="220" height="30" as="geometry"/></mxCell><mxCell id="TUSlKA904p2KACR7ByrP-33" value="" style="shape=tableRow;horizontal=0;startSize=0;swimlaneHead=0;swimlaneBody=0;fillColor=none;collapsible=0;dropTarget=0;points=[[0,0.5],[1,0.5]];portConstraint=eastwest;top=0;left=0;right=0;bottom=0;" vertex="1" parent="1"><mxGeometry x="360" y="510" width="220" height="30" as="geometry"/></mxCell><mxCell id="TUSlKA904p2KACR7ByrP-46" value="INT" style="shape=partialRectangle;fillColor=none;align=left;verticalAlign=middle;strokeColor=none;spacingLeft=34;rotatable=0;points=[[0,0.5],[1,0.5]];portConstraint=eastwest;dropTarget=0;strokeWidth=1;" vertex="1" parent="1"><mxGeometry x="550" y="360" width="90" height="30" as="geometry"/></mxCell><mxCell id="TUSlKA904p2KACR7ByrP-47" value="" style="shape=partialRectangle;top=0;left=0;bottom=0;fillColor=none;stokeWidth=1;dashed=1;align=left;verticalAlign=middle;spacingLeft=4;spacingRight=4;overflow=hidden;rotatable=0;points=[];portConstraint=eastwest;part=1;strokeWidth=1;" vertex="1" connectable="0" parent="TUSlKA904p2KACR7ByrP-46"><mxGeometry width="30" height="30" as="geometry"/></mxCell><mxCell id="TUSlKA904p2KACR7ByrP-48" value="DATE" style="shape=partialRectangle;fillColor=none;align=left;verticalAlign=middle;strokeColor=none;spacingLeft=34;rotatable=0;points=[[0,0.5],[1,0.5]];portConstraint=eastwest;dropTarget=0;strokeWidth=1;" vertex="1" parent="1"><mxGeometry x="550" y="420" width="90" height="30" as="geometry"/></mxCell><mxCell id="TUSlKA904p2KACR7ByrP-49" value="" style="shape=partialRectangle;top=0;left=0;bottom=0;fillColor=none;stokeWidth=1;dashed=1;align=left;verticalAlign=middle;spacingLeft=4;spacingRight=4;overflow=hidden;rotatable=0;points=[];portConstraint=eastwest;part=1;strokeWidth=1;" vertex="1" connectable="0" parent="TUSlKA904p2KACR7ByrP-48"><mxGeometry width="30" height="30" as="geometry"/></mxCell><mxCell id="TUSlKA904p2KACR7ByrP-50" value="INT" style="shape=partialRectangle;fillColor=none;align=left;verticalAlign=middle;strokeColor=none;spacingLeft=34;rotatable=0;points=[[0,0.5],[1,0.5]];portConstraint=eastwest;dropTarget=0;strokeWidth=1;" vertex="1" parent="1"><mxGeometry x="550" y="480" width="90" height="30" as="geometry"/></mxCell><mxCell id="TUSlKA904p2KACR7ByrP-51" value="" style="shape=partialRectangle;top=0;left=0;bottom=0;fillColor=none;stokeWidth=1;dashed=1;align=left;verticalAlign=middle;spacingLeft=4;spacingRight=4;overflow=hidden;rotatable=0;points=[];portConstraint=eastwest;part=1;strokeWidth=1;" vertex="1" connectable="0" parent="TUSlKA904p2KACR7ByrP-50"><mxGeometry width="30" height="30" as="geometry"/></mxCell><mxCell id="TUSlKA904p2KACR7ByrP-52" value="INT" style="shape=partialRectangle;fillColor=none;align=left;verticalAlign=middle;strokeColor=none;spacingLeft=34;rotatable=0;points=[[0,0.5],[1,0.5]];portConstraint=eastwest;dropTarget=0;strokeWidth=1;" vertex="1" parent="1"><mxGeometry x="550" y="500" width="90" height="30" as="geometry"/></mxCell><mxCell id="TUSlKA904p2KACR7ByrP-53" value="" style="shape=partialRectangle;top=0;left=0;bottom=0;fillColor=none;stokeWidth=1;dashed=1;align=left;verticalAlign=middle;spacingLeft=4;spacingRight=4;overflow=hidden;rotatable=0;points=[];portConstraint=eastwest;part=1;strokeWidth=1;" vertex="1" connectable="0" parent="TUSlKA904p2KACR7ByrP-52"><mxGeometry width="30" height="30" as="geometry"/></mxCell><mxCell id="TUSlKA904p2KACR7ByrP-67" style="edgeStyle=none;html=1;exitX=0.75;exitY=0;exitDx=0;exitDy=0;" edge="1" parent="1" source="TUSlKA904p2KACR7ByrP-54"><mxGeometry relative="1" as="geometry"><mxPoint x="860.0000000000002" y="340" as="targetPoint"/></mxGeometry></mxCell><mxCell id="TUSlKA904p2KACR7ByrP-54" value="CLIENTE" style="shape=table;startSize=30;container=1;collapsible=1;childLayout=tableLayout;fixedRows=1;rowLines=0;fontStyle=1;align=center;resizeLast=1;strokeWidth=1;" vertex="1" parent="1"><mxGeometry x="690" y="330" width="260" height="160" as="geometry"/></mxCell><mxCell id="TUSlKA904p2KACR7ByrP-55" value="" style="shape=tableRow;horizontal=0;startSize=0;swimlaneHead=0;swimlaneBody=0;fillColor=none;collapsible=0;dropTarget=0;points=[[0,0.5],[1,0.5]];portConstraint=eastwest;top=0;left=0;right=0;bottom=1;strokeWidth=1;" vertex="1" parent="TUSlKA904p2KACR7ByrP-54"><mxGeometry y="30" width="260" height="30" as="geometry"/></mxCell><mxCell id="TUSlKA904p2KACR7ByrP-56" value="PK" style="shape=partialRectangle;connectable=0;fillColor=none;top=0;left=0;bottom=0;right=0;fontStyle=1;overflow=hidden;strokeWidth=1;" vertex="1" parent="TUSlKA904p2KACR7ByrP-55"><mxGeometry width="30" height="30" as="geometry"><mxRectangle width="30" height="30" as="alternateBounds"/></mxGeometry></mxCell><mxCell id="TUSlKA904p2KACR7ByrP-57" value="ID CLIENTE" style="shape=partialRectangle;connectable=0;fillColor=none;top=0;left=0;bottom=0;right=0;align=left;spacingLeft=6;fontStyle=5;overflow=hidden;strokeWidth=1;" vertex="1" parent="TUSlKA904p2KACR7ByrP-55"><mxGeometry x="30" width="230" height="30" as="geometry"><mxRectangle width="230" height="30" as="alternateBounds"/></mxGeometry></mxCell><mxCell id="TUSlKA904p2KACR7ByrP-58" value="" style="shape=tableRow;horizontal=0;startSize=0;swimlaneHead=0;swimlaneBody=0;fillColor=none;collapsible=0;dropTarget=0;points=[[0,0.5],[1,0.5]];portConstraint=eastwest;top=0;left=0;right=0;bottom=0;strokeWidth=1;" vertex="1" parent="TUSlKA904p2KACR7ByrP-54"><mxGeometry y="60" width="260" height="30" as="geometry"/></mxCell><mxCell id="TUSlKA904p2KACR7ByrP-59" value="" style="shape=partialRectangle;connectable=0;fillColor=none;top=0;left=0;bottom=0;right=0;editable=1;overflow=hidden;strokeWidth=1;" vertex="1" parent="TUSlKA904p2KACR7ByrP-58"><mxGeometry width="30" height="30" as="geometry"><mxRectangle width="30" height="30" as="alternateBounds"/></mxGeometry></mxCell><mxCell id="TUSlKA904p2KACR7ByrP-60" value="Row 1" style="shape=partialRectangle;connectable=0;fillColor=none;top=0;left=0;bottom=0;right=0;align=left;spacingLeft=6;overflow=hidden;strokeWidth=1;" vertex="1" parent="TUSlKA904p2KACR7ByrP-58"><mxGeometry x="30" width="230" height="30" as="geometry"><mxRectangle width="230" height="30" as="alternateBounds"/></mxGeometry></mxCell><mxCell id="TUSlKA904p2KACR7ByrP-61" value="" style="shape=tableRow;horizontal=0;startSize=0;swimlaneHead=0;swimlaneBody=0;fillColor=none;collapsible=0;dropTarget=0;points=[[0,0.5],[1,0.5]];portConstraint=eastwest;top=0;left=0;right=0;bottom=0;strokeWidth=1;" vertex="1" parent="TUSlKA904p2KACR7ByrP-54"><mxGeometry y="90" width="260" height="30" as="geometry"/></mxCell><mxCell id="TUSlKA904p2KACR7ByrP-62" value="" style="shape=partialRectangle;connectable=0;fillColor=none;top=0;left=0;bottom=0;right=0;editable=1;overflow=hidden;strokeWidth=1;" vertex="1" parent="TUSlKA904p2KACR7ByrP-61"><mxGeometry width="30" height="30" as="geometry"><mxRectangle width="30" height="30" as="alternateBounds"/></mxGeometry></mxCell><mxCell id="TUSlKA904p2KACR7ByrP-63" value="Row 2" style="shape=partialRectangle;connectable=0;fillColor=none;top=0;left=0;bottom=0;right=0;align=left;spacingLeft=6;overflow=hidden;strokeWidth=1;" vertex="1" parent="TUSlKA904p2KACR7ByrP-61"><mxGeometry x="30" width="230" height="30" as="geometry"><mxRectangle width="230" height="30" as="alternateBounds"/></mxGeometry></mxCell><mxCell id="TUSlKA904p2KACR7ByrP-64" value="" style="shape=tableRow;horizontal=0;startSize=0;swimlaneHead=0;swimlaneBody=0;fillColor=none;collapsible=0;dropTarget=0;points=[[0,0.5],[1,0.5]];portConstraint=eastwest;top=0;left=0;right=0;bottom=0;strokeWidth=1;" vertex="1" parent="TUSlKA904p2KACR7ByrP-54"><mxGeometry y="120" width="260" height="30" as="geometry"/></mxCell><mxCell id="TUSlKA904p2KACR7ByrP-65" value="" style="shape=partialRectangle;connectable=0;fillColor=none;top=0;left=0;bottom=0;right=0;editable=1;overflow=hidden;strokeWidth=1;" vertex="1" parent="TUSlKA904p2KACR7ByrP-64"><mxGeometry width="30" height="30" as="geometry"><mxRectangle width="30" height="30" as="alternateBounds"/></mxGeometry></mxCell><mxCell id="TUSlKA904p2KACR7ByrP-66" value="Row 3" style="shape=partialRectangle;connectable=0;fillColor=none;top=0;left=0;bottom=0;right=0;align=left;spacingLeft=6;overflow=hidden;strokeWidth=1;" vertex="1" parent="TUSlKA904p2KACR7ByrP-64"><mxGeometry x="30" width="230" height="30" as="geometry"><mxRectangle width="230" height="30" as="alternateBounds"/></mxGeometry></mxCell><mxCell id="TUSlKA904p2KACR7ByrP-68" value="DATOS PERSONALES" style="shape=table;startSize=30;container=1;collapsible=1;childLayout=tableLayout;fixedRows=1;rowLines=0;fontStyle=1;align=center;resizeLast=1;strokeWidth=1;" vertex="1" parent="1"><mxGeometry x="790" y="560" width="180" height="150" as="geometry"/></mxCell><mxCell id="TUSlKA904p2KACR7ByrP-69" value="" style="shape=tableRow;horizontal=0;startSize=0;swimlaneHead=0;swimlaneBody=0;fillColor=none;collapsible=0;dropTarget=0;points=[[0,0.5],[1,0.5]];portConstraint=eastwest;top=0;left=0;right=0;bottom=1;strokeWidth=1;" vertex="1" parent="TUSlKA904p2KACR7ByrP-68"><mxGeometry y="30" width="180" height="30" as="geometry"/></mxCell><mxCell id="TUSlKA904p2KACR7ByrP-70" value="PK" style="shape=partialRectangle;connectable=0;fillColor=none;top=0;left=0;bottom=0;right=0;fontStyle=1;overflow=hidden;strokeWidth=1;" vertex="1" parent="TUSlKA904p2KACR7ByrP-69"><mxGeometry width="30" height="30" as="geometry"><mxRectangle width="30" height="30" as="alternateBounds"/></mxGeometry></mxCell><mxCell id="TUSlKA904p2KACR7ByrP-71" value="ID DATOSPERSONALES" style="shape=partialRectangle;connectable=0;fillColor=none;top=0;left=0;bottom=0;right=0;align=left;spacingLeft=6;fontStyle=5;overflow=hidden;strokeWidth=1;" vertex="1" parent="TUSlKA904p2KACR7ByrP-69"><mxGeometry x="30" width="150" height="30" as="geometry"><mxRectangle width="150" height="30" as="alternateBounds"/></mxGeometry></mxCell><mxCell id="TUSlKA904p2KACR7ByrP-72" value="" style="shape=tableRow;horizontal=0;startSize=0;swimlaneHead=0;swimlaneBody=0;fillColor=none;collapsible=0;dropTarget=0;points=[[0,0.5],[1,0.5]];portConstraint=eastwest;top=0;left=0;right=0;bottom=0;strokeWidth=1;" vertex="1" parent="TUSlKA904p2KACR7ByrP-68"><mxGeometry y="60" width="180" height="30" as="geometry"/></mxCell><mxCell id="TUSlKA904p2KACR7ByrP-73" value="" style="shape=partialRectangle;connectable=0;fillColor=none;top=0;left=0;bottom=0;right=0;editable=1;overflow=hidden;strokeWidth=1;" vertex="1" parent="TUSlKA904p2KACR7ByrP-72"><mxGeometry width="30" height="30" as="geometry"><mxRectangle width="30" height="30" as="alternateBounds"/></mxGeometry></mxCell><mxCell id="TUSlKA904p2KACR7ByrP-74" value="Row 1" style="shape=partialRectangle;connectable=0;fillColor=none;top=0;left=0;bottom=0;right=0;align=left;spacingLeft=6;overflow=hidden;strokeWidth=1;" vertex="1" parent="TUSlKA904p2KACR7ByrP-72"><mxGeometry x="30" width="150" height="30" as="geometry"><mxRectangle width="150" height="30" as="alternateBounds"/></mxGeometry></mxCell><mxCell id="TUSlKA904p2KACR7ByrP-75" value="" style="shape=tableRow;horizontal=0;startSize=0;swimlaneHead=0;swimlaneBody=0;fillColor=none;collapsible=0;dropTarget=0;points=[[0,0.5],[1,0.5]];portConstraint=eastwest;top=0;left=0;right=0;bottom=0;strokeWidth=1;" vertex="1" parent="TUSlKA904p2KACR7ByrP-68"><mxGeometry y="90" width="180" height="30" as="geometry"/></mxCell><mxCell id="TUSlKA904p2KACR7ByrP-76" value="" style="shape=partialRectangle;connectable=0;fillColor=none;top=0;left=0;bottom=0;right=0;editable=1;overflow=hidden;strokeWidth=1;" vertex="1" parent="TUSlKA904p2KACR7ByrP-75"><mxGeometry width="30" height="30" as="geometry"><mxRectangle width="30" height="30" as="alternateBounds"/></mxGeometry></mxCell><mxCell id="TUSlKA904p2KACR7ByrP-77" value="Row 2" style="shape=partialRectangle;connectable=0;fillColor=none;top=0;left=0;bottom=0;right=0;align=left;spacingLeft=6;overflow=hidden;strokeWidth=1;" vertex="1" parent="TUSlKA904p2KACR7ByrP-75"><mxGeometry x="30" width="150" height="30" as="geometry"><mxRectangle width="150" height="30" as="alternateBounds"/></mxGeometry></mxCell><mxCell id="TUSlKA904p2KACR7ByrP-78" value="" style="shape=tableRow;horizontal=0;startSize=0;swimlaneHead=0;swimlaneBody=0;fillColor=none;collapsible=0;dropTarget=0;points=[[0,0.5],[1,0.5]];portConstraint=eastwest;top=0;left=0;right=0;bottom=0;strokeWidth=1;" vertex="1" parent="TUSlKA904p2KACR7ByrP-68"><mxGeometry y="120" width="180" height="30" as="geometry"/></mxCell><mxCell id="TUSlKA904p2KACR7ByrP-79" value="" style="shape=partialRectangle;connectable=0;fillColor=none;top=0;left=0;bottom=0;right=0;editable=1;overflow=hidden;strokeWidth=1;" vertex="1" parent="TUSlKA904p2KACR7ByrP-78"><mxGeometry width="30" height="30" as="geometry"><mxRectangle width="30" height="30" as="alternateBounds"/></mxGeometry></mxCell><mxCell id="TUSlKA904p2KACR7ByrP-80" value="Row 3" style="shape=partialRectangle;connectable=0;fillColor=none;top=0;left=0;bottom=0;right=0;align=left;spacingLeft=6;overflow=hidden;strokeWidth=1;" vertex="1" parent="TUSlKA904p2KACR7ByrP-78"><mxGeometry x="30" width="150" height="30" as="geometry"><mxRectangle width="150" height="30" as="alternateBounds"/></mxGeometry></mxCell><mxCell id="TUSlKA904p2KACR7ByrP-81" value="PRODUCTO" style="shape=table;startSize=30;container=1;collapsible=1;childLayout=tableLayout;fixedRows=1;rowLines=0;fontStyle=1;align=center;resizeLast=1;strokeWidth=1;" vertex="1" parent="1"><mxGeometry x="1050" y="480" width="180" height="150" as="geometry"/></mxCell><mxCell id="TUSlKA904p2KACR7ByrP-82" value="" style="shape=tableRow;horizontal=0;startSize=0;swimlaneHead=0;swimlaneBody=0;fillColor=none;collapsible=0;dropTarget=0;points=[[0,0.5],[1,0.5]];portConstraint=eastwest;top=0;left=0;right=0;bottom=1;strokeWidth=1;" vertex="1" parent="TUSlKA904p2KACR7ByrP-81"><mxGeometry y="30" width="180" height="30" as="geometry"/></mxCell><mxCell id="TUSlKA904p2KACR7ByrP-83" value="PK" style="shape=partialRectangle;connectable=0;fillColor=none;top=0;left=0;bottom=0;right=0;fontStyle=1;overflow=hidden;strokeWidth=1;" vertex="1" parent="TUSlKA904p2KACR7ByrP-82"><mxGeometry width="30" height="30" as="geometry"><mxRectangle width="30" height="30" as="alternateBounds"/></mxGeometry></mxCell><mxCell id="TUSlKA904p2KACR7ByrP-84" value="ID PRODUCTO" style="shape=partialRectangle;connectable=0;fillColor=none;top=0;left=0;bottom=0;right=0;align=left;spacingLeft=6;fontStyle=5;overflow=hidden;strokeWidth=1;" vertex="1" parent="TUSlKA904p2KACR7ByrP-82"><mxGeometry x="30" width="150" height="30" as="geometry"><mxRectangle width="150" height="30" as="alternateBounds"/></mxGeometry></mxCell><mxCell id="TUSlKA904p2KACR7ByrP-85" value="" style="shape=tableRow;horizontal=0;startSize=0;swimlaneHead=0;swimlaneBody=0;fillColor=none;collapsible=0;dropTarget=0;points=[[0,0.5],[1,0.5]];portConstraint=eastwest;top=0;left=0;right=0;bottom=0;strokeWidth=1;" vertex="1" parent="TUSlKA904p2KACR7ByrP-81"><mxGeometry y="60" width="180" height="30" as="geometry"/></mxCell><mxCell id="TUSlKA904p2KACR7ByrP-86" value="" style="shape=partialRectangle;connectable=0;fillColor=none;top=0;left=0;bottom=0;right=0;editable=1;overflow=hidden;strokeWidth=1;" vertex="1" parent="TUSlKA904p2KACR7ByrP-85"><mxGeometry width="30" height="30" as="geometry"><mxRectangle width="30" height="30" as="alternateBounds"/></mxGeometry></mxCell><mxCell id="TUSlKA904p2KACR7ByrP-87" value="Row 1" style="shape=partialRectangle;connectable=0;fillColor=none;top=0;left=0;bottom=0;right=0;align=left;spacingLeft=6;overflow=hidden;strokeWidth=1;" vertex="1" parent="TUSlKA904p2KACR7ByrP-85"><mxGeometry x="30" width="150" height="30" as="geometry"><mxRectangle width="150" height="30" as="alternateBounds"/></mxGeometry></mxCell><mxCell id="TUSlKA904p2KACR7ByrP-88" value="" style="shape=tableRow;horizontal=0;startSize=0;swimlaneHead=0;swimlaneBody=0;fillColor=none;collapsible=0;dropTarget=0;points=[[0,0.5],[1,0.5]];portConstraint=eastwest;top=0;left=0;right=0;bottom=0;strokeWidth=1;" vertex="1" parent="TUSlKA904p2KACR7ByrP-81"><mxGeometry y="90" width="180" height="30" as="geometry"/></mxCell><mxCell id="TUSlKA904p2KACR7ByrP-89" value="" style="shape=partialRectangle;connectable=0;fillColor=none;top=0;left=0;bottom=0;right=0;editable=1;overflow=hidden;strokeWidth=1;" vertex="1" parent="TUSlKA904p2KACR7ByrP-88"><mxGeometry width="30" height="30" as="geometry"><mxRectangle width="30" height="30" as="alternateBounds"/></mxGeometry></mxCell><mxCell id="TUSlKA904p2KACR7ByrP-90" value="Row 2" style="shape=partialRectangle;connectable=0;fillColor=none;top=0;left=0;bottom=0;right=0;align=left;spacingLeft=6;overflow=hidden;strokeWidth=1;" vertex="1" parent="TUSlKA904p2KACR7ByrP-88"><mxGeometry x="30" width="150" height="30" as="geometry"><mxRectangle width="150" height="30" as="alternateBounds"/></mxGeometry></mxCell><mxCell id="TUSlKA904p2KACR7ByrP-91" value="" style="shape=tableRow;horizontal=0;startSize=0;swimlaneHead=0;swimlaneBody=0;fillColor=none;collapsible=0;dropTarget=0;points=[[0,0.5],[1,0.5]];portConstraint=eastwest;top=0;left=0;right=0;bottom=0;strokeWidth=1;" vertex="1" parent="TUSlKA904p2KACR7ByrP-81"><mxGeometry y="120" width="180" height="30" as="geometry"/></mxCell><mxCell id="TUSlKA904p2KACR7ByrP-92" value="" style="shape=partialRectangle;connectable=0;fillColor=none;top=0;left=0;bottom=0;right=0;editable=1;overflow=hidden;strokeWidth=1;" vertex="1" parent="TUSlKA904p2KACR7ByrP-91"><mxGeometry width="30" height="30" as="geometry"><mxRectangle width="30" height="30" as="alternateBounds"/></mxGeometry></mxCell><mxCell id="TUSlKA904p2KACR7ByrP-93" value="Row 3" style="shape=partialRectangle;connectable=0;fillColor=none;top=0;left=0;bottom=0;right=0;align=left;spacingLeft=6;overflow=hidden;strokeWidth=1;" vertex="1" parent="TUSlKA904p2KACR7ByrP-91"><mxGeometry x="30" width="150" height="30" as="geometry"><mxRectangle width="150" height="30" as="alternateBounds"/></mxGeometry></mxCell><mxCell id="TUSlKA904p2KACR7ByrP-94" value="MASCOTA" style="shape=table;startSize=20;container=1;collapsible=1;childLayout=tableLayout;fixedRows=1;rowLines=0;fontStyle=1;align=center;resizeLast=1;strokeWidth=1;" vertex="1" parent="1"><mxGeometry x="980" y="730" width="180" height="150" as="geometry"/></mxCell><mxCell id="TUSlKA904p2KACR7ByrP-95" value="" style="shape=tableRow;horizontal=0;startSize=0;swimlaneHead=0;swimlaneBody=0;fillColor=none;collapsible=0;dropTarget=0;points=[[0,0.5],[1,0.5]];portConstraint=eastwest;top=0;left=0;right=0;bottom=1;strokeWidth=1;" vertex="1" parent="TUSlKA904p2KACR7ByrP-94"><mxGeometry y="20" width="180" height="30" as="geometry"/></mxCell><mxCell id="TUSlKA904p2KACR7ByrP-96" value="PK" style="shape=partialRectangle;connectable=0;fillColor=none;top=0;left=0;bottom=0;right=0;fontStyle=1;overflow=hidden;strokeWidth=1;" vertex="1" parent="TUSlKA904p2KACR7ByrP-95"><mxGeometry width="30" height="30" as="geometry"><mxRectangle width="30" height="30" as="alternateBounds"/></mxGeometry></mxCell><mxCell id="TUSlKA904p2KACR7ByrP-97" value="ID MASCOTA" style="shape=partialRectangle;connectable=0;fillColor=none;top=0;left=0;bottom=0;right=0;align=left;spacingLeft=6;fontStyle=5;overflow=hidden;strokeWidth=1;" vertex="1" parent="TUSlKA904p2KACR7ByrP-95"><mxGeometry x="30" width="150" height="30" as="geometry"><mxRectangle width="150" height="30" as="alternateBounds"/></mxGeometry></mxCell><mxCell id="TUSlKA904p2KACR7ByrP-98" value="" style="shape=tableRow;horizontal=0;startSize=0;swimlaneHead=0;swimlaneBody=0;fillColor=none;collapsible=0;dropTarget=0;points=[[0,0.5],[1,0.5]];portConstraint=eastwest;top=0;left=0;right=0;bottom=0;strokeWidth=1;" vertex="1" parent="TUSlKA904p2KACR7ByrP-94"><mxGeometry y="50" width="180" height="30" as="geometry"/></mxCell><mxCell id="TUSlKA904p2KACR7ByrP-99" value="" style="shape=partialRectangle;connectable=0;fillColor=none;top=0;left=0;bottom=0;right=0;editable=1;overflow=hidden;strokeWidth=1;" vertex="1" parent="TUSlKA904p2KACR7ByrP-98"><mxGeometry width="30" height="30" as="geometry"><mxRectangle width="30" height="30" as="alternateBounds"/></mxGeometry></mxCell><mxCell id="TUSlKA904p2KACR7ByrP-100" value="Row 1" style="shape=partialRectangle;connectable=0;fillColor=none;top=0;left=0;bottom=0;right=0;align=left;spacingLeft=6;overflow=hidden;strokeWidth=1;" vertex="1" parent="TUSlKA904p2KACR7ByrP-98"><mxGeometry x="30" width="150" height="30" as="geometry"><mxRectangle width="150" height="30" as="alternateBounds"/></mxGeometry></mxCell><mxCell id="TUSlKA904p2KACR7ByrP-101" value="" style="shape=tableRow;horizontal=0;startSize=0;swimlaneHead=0;swimlaneBody=0;fillColor=none;collapsible=0;dropTarget=0;points=[[0,0.5],[1,0.5]];portConstraint=eastwest;top=0;left=0;right=0;bottom=0;strokeWidth=1;" vertex="1" parent="TUSlKA904p2KACR7ByrP-94"><mxGeometry y="80" width="180" height="30" as="geometry"/></mxCell><mxCell id="TUSlKA904p2KACR7ByrP-102" value="" style="shape=partialRectangle;connectable=0;fillColor=none;top=0;left=0;bottom=0;right=0;editable=1;overflow=hidden;strokeWidth=1;" vertex="1" parent="TUSlKA904p2KACR7ByrP-101"><mxGeometry width="30" height="30" as="geometry"><mxRectangle width="30" height="30" as="alternateBounds"/></mxGeometry></mxCell><mxCell id="TUSlKA904p2KACR7ByrP-103" value="Row 2" style="shape=partialRectangle;connectable=0;fillColor=none;top=0;left=0;bottom=0;right=0;align=left;spacingLeft=6;overflow=hidden;strokeWidth=1;" vertex="1" parent="TUSlKA904p2KACR7ByrP-101"><mxGeometry x="30" width="150" height="30" as="geometry"><mxRectangle width="150" height="30" as="alternateBounds"/></mxGeometry></mxCell><mxCell id="TUSlKA904p2KACR7ByrP-104" value="" style="shape=tableRow;horizontal=0;startSize=0;swimlaneHead=0;swimlaneBody=0;fillColor=none;collapsible=0;dropTarget=0;points=[[0,0.5],[1,0.5]];portConstraint=eastwest;top=0;left=0;right=0;bottom=0;strokeWidth=1;" vertex="1" parent="TUSlKA904p2KACR7ByrP-94"><mxGeometry y="110" width="180" height="30" as="geometry"/></mxCell><mxCell id="TUSlKA904p2KACR7ByrP-105" value="" style="shape=partialRectangle;connectable=0;fillColor=none;top=0;left=0;bottom=0;right=0;editable=1;overflow=hidden;strokeWidth=1;" vertex="1" parent="TUSlKA904p2KACR7ByrP-104"><mxGeometry width="30" height="30" as="geometry"><mxRectangle width="30" height="30" as="alternateBounds"/></mxGeometry></mxCell><mxCell id="TUSlKA904p2KACR7ByrP-106" value="Row 3" style="shape=partialRectangle;connectable=0;fillColor=none;top=0;left=0;bottom=0;right=0;align=left;spacingLeft=6;overflow=hidden;strokeWidth=1;" vertex="1" parent="TUSlKA904p2KACR7ByrP-104"><mxGeometry x="30" width="150" height="30" as="geometry"><mxRectangle width="150" height="30" as="alternateBounds"/></mxGeometry></mxCell><mxCell id="TUSlKA904p2KACR7ByrP-107" value="CERTIFICADO" style="shape=table;startSize=20;container=1;collapsible=1;childLayout=tableLayout;fixedRows=1;rowLines=0;fontStyle=1;align=center;resizeLast=1;strokeWidth=1;" vertex="1" parent="1"><mxGeometry x="530" y="750" width="180" height="150" as="geometry"/></mxCell><mxCell id="TUSlKA904p2KACR7ByrP-108" value="" style="shape=tableRow;horizontal=0;startSize=0;swimlaneHead=0;swimlaneBody=0;fillColor=none;collapsible=0;dropTarget=0;points=[[0,0.5],[1,0.5]];portConstraint=eastwest;top=0;left=0;right=0;bottom=1;strokeWidth=1;" vertex="1" parent="TUSlKA904p2KACR7ByrP-107"><mxGeometry y="20" width="180" height="30" as="geometry"/></mxCell><mxCell id="TUSlKA904p2KACR7ByrP-109" value="PK" style="shape=partialRectangle;connectable=0;fillColor=none;top=0;left=0;bottom=0;right=0;fontStyle=1;overflow=hidden;strokeWidth=1;" vertex="1" parent="TUSlKA904p2KACR7ByrP-108"><mxGeometry width="30" height="30" as="geometry"><mxRectangle width="30" height="30" as="alternateBounds"/></mxGeometry></mxCell><mxCell id="TUSlKA904p2KACR7ByrP-110" value="ID CERTIFICADO" style="shape=partialRectangle;connectable=0;fillColor=none;top=0;left=0;bottom=0;right=0;align=left;spacingLeft=6;fontStyle=5;overflow=hidden;strokeWidth=1;" vertex="1" parent="TUSlKA904p2KACR7ByrP-108"><mxGeometry x="30" width="150" height="30" as="geometry"><mxRectangle width="150" height="30" as="alternateBounds"/></mxGeometry></mxCell><mxCell id="TUSlKA904p2KACR7ByrP-111" value="" style="shape=tableRow;horizontal=0;startSize=0;swimlaneHead=0;swimlaneBody=0;fillColor=none;collapsible=0;dropTarget=0;points=[[0,0.5],[1,0.5]];portConstraint=eastwest;top=0;left=0;right=0;bottom=0;strokeWidth=1;" vertex="1" parent="TUSlKA904p2KACR7ByrP-107"><mxGeometry y="50" width="180" height="30" as="geometry"/></mxCell><mxCell id="TUSlKA904p2KACR7ByrP-112" value="" style="shape=partialRectangle;connectable=0;fillColor=none;top=0;left=0;bottom=0;right=0;editable=1;overflow=hidden;strokeWidth=1;" vertex="1" parent="TUSlKA904p2KACR7ByrP-111"><mxGeometry width="30" height="30" as="geometry"><mxRectangle width="30" height="30" as="alternateBounds"/></mxGeometry></mxCell><mxCell id="TUSlKA904p2KACR7ByrP-113" value="Row 1" style="shape=partialRectangle;connectable=0;fillColor=none;top=0;left=0;bottom=0;right=0;align=left;spacingLeft=6;overflow=hidden;strokeWidth=1;" vertex="1" parent="TUSlKA904p2KACR7ByrP-111"><mxGeometry x="30" width="150" height="30" as="geometry"><mxRectangle width="150" height="30" as="alternateBounds"/></mxGeometry></mxCell><mxCell id="TUSlKA904p2KACR7ByrP-114" value="" style="shape=tableRow;horizontal=0;startSize=0;swimlaneHead=0;swimlaneBody=0;fillColor=none;collapsible=0;dropTarget=0;points=[[0,0.5],[1,0.5]];portConstraint=eastwest;top=0;left=0;right=0;bottom=0;strokeWidth=1;" vertex="1" parent="TUSlKA904p2KACR7ByrP-107"><mxGeometry y="80" width="180" height="30" as="geometry"/></mxCell><mxCell id="TUSlKA904p2KACR7ByrP-115" value="" style="shape=partialRectangle;connectable=0;fillColor=none;top=0;left=0;bottom=0;right=0;editable=1;overflow=hidden;strokeWidth=1;" vertex="1" parent="TUSlKA904p2KACR7ByrP-114"><mxGeometry width="30" height="30" as="geometry"><mxRectangle width="30" height="30" as="alternateBounds"/></mxGeometry></mxCell><mxCell id="TUSlKA904p2KACR7ByrP-116" value="Row 2" style="shape=partialRectangle;connectable=0;fillColor=none;top=0;left=0;bottom=0;right=0;align=left;spacingLeft=6;overflow=hidden;strokeWidth=1;" vertex="1" parent="TUSlKA904p2KACR7ByrP-114"><mxGeometry x="30" width="150" height="30" as="geometry"><mxRectangle width="150" height="30" as="alternateBounds"/></mxGeometry></mxCell><mxCell id="TUSlKA904p2KACR7ByrP-117" value="" style="shape=tableRow;horizontal=0;startSize=0;swimlaneHead=0;swimlaneBody=0;fillColor=none;collapsible=0;dropTarget=0;points=[[0,0.5],[1,0.5]];portConstraint=eastwest;top=0;left=0;right=0;bottom=0;strokeWidth=1;" vertex="1" parent="TUSlKA904p2KACR7ByrP-107"><mxGeometry y="110" width="180" height="30" as="geometry"/></mxCell><mxCell id="TUSlKA904p2KACR7ByrP-118" value="" style="shape=partialRectangle;connectable=0;fillColor=none;top=0;left=0;bottom=0;right=0;editable=1;overflow=hidden;strokeWidth=1;" vertex="1" parent="TUSlKA904p2KACR7ByrP-117"><mxGeometry width="30" height="30" as="geometry"><mxRectangle width="30" height="30" as="alternateBounds"/></mxGeometry></mxCell><mxCell id="TUSlKA904p2KACR7ByrP-119" value="Row 3" style="shape=partialRectangle;connectable=0;fillColor=none;top=0;left=0;bottom=0;right=0;align=left;spacingLeft=6;overflow=hidden;strokeWidth=1;" vertex="1" parent="TUSlKA904p2KACR7ByrP-117"><mxGeometry x="30" width="150" height="30" as="geometry"><mxRectangle width="150" height="30" as="alternateBounds"/></mxGeometry></mxCell></root></mxGraphModel></diagram><diagram id="uUNHDZawrjPgXeCxFq6C" name="Page-2"><mxGraphModel dx="1564" dy="594" grid="1" gridSize="10" guides="1" tooltips="1" connect="1" arrows="1" fold="1" page="1" pageScale="1" pageWidth="850" pageHeight="1100" math="0" shadow="0"><root><mxCell id="0"/><mxCell id="1" parent="0"/><mxCell id="808sPghNEl_nRTgC7U6s-1" value="HISTORIAL MEDICO" style="shape=table;startSize=30;container=1;collapsible=1;childLayout=tableLayout;fixedRows=1;rowLines=0;fontStyle=1;align=center;resizeLast=1;strokeWidth=1;" vertex="1" parent="1"><mxGeometry x="800" y="20" width="180" height="150" as="geometry"/></mxCell><mxCell id="808sPghNEl_nRTgC7U6s-2" value="" style="shape=tableRow;horizontal=0;startSize=0;swimlaneHead=0;swimlaneBody=0;fillColor=none;collapsible=0;dropTarget=0;points=[[0,0.5],[1,0.5]];portConstraint=eastwest;top=0;left=0;right=0;bottom=1;strokeWidth=1;" vertex="1" parent="808sPghNEl_nRTgC7U6s-1"><mxGeometry y="30" width="180" height="30" as="geometry"/></mxCell><mxCell id="808sPghNEl_nRTgC7U6s-3" value="PK" style="shape=partialRectangle;connectable=0;fillColor=none;top=0;left=0;bottom=0;right=0;fontStyle=1;overflow=hidden;strokeWidth=1;" vertex="1" parent="808sPghNEl_nRTgC7U6s-2"><mxGeometry width="30" height="30" as="geometry"><mxRectangle width="30" height="30" as="alternateBounds"/></mxGeometry></mxCell><mxCell id="808sPghNEl_nRTgC7U6s-4" value="ID HISTORIAL M" style="shape=partialRectangle;connectable=0;fillColor=none;top=0;left=0;bottom=0;right=0;align=left;spacingLeft=6;fontStyle=5;overflow=hidden;strokeWidth=1;" vertex="1" parent="808sPghNEl_nRTgC7U6s-2"><mxGeometry x="30" width="150" height="30" as="geometry"><mxRectangle width="150" height="30" as="alternateBounds"/></mxGeometry></mxCell><mxCell id="808sPghNEl_nRTgC7U6s-5" value="" style="shape=tableRow;horizontal=0;startSize=0;swimlaneHead=0;swimlaneBody=0;fillColor=none;collapsible=0;dropTarget=0;points=[[0,0.5],[1,0.5]];portConstraint=eastwest;top=0;left=0;right=0;bottom=0;strokeWidth=1;" vertex="1" parent="808sPghNEl_nRTgC7U6s-1"><mxGeometry y="60" width="180" height="30" as="geometry"/></mxCell><mxCell id="808sPghNEl_nRTgC7U6s-6" value="" style="shape=partialRectangle;connectable=0;fillColor=none;top=0;left=0;bottom=0;right=0;editable=1;overflow=hidden;strokeWidth=1;" vertex="1" parent="808sPghNEl_nRTgC7U6s-5"><mxGeometry width="30" height="30" as="geometry"><mxRectangle width="30" height="30" as="alternateBounds"/></mxGeometry></mxCell><mxCell id="808sPghNEl_nRTgC7U6s-7" value="Row 1" style="shape=partialRectangle;connectable=0;fillColor=none;top=0;left=0;bottom=0;right=0;align=left;spacingLeft=6;overflow=hidden;strokeWidth=1;" vertex="1" parent="808sPghNEl_nRTgC7U6s-5"><mxGeometry x="30" width="150" height="30" as="geometry"><mxRectangle width="150" height="30" as="alternateBounds"/></mxGeometry></mxCell><mxCell id="808sPghNEl_nRTgC7U6s-8" value="" style="shape=tableRow;horizontal=0;startSize=0;swimlaneHead=0;swimlaneBody=0;fillColor=none;collapsible=0;dropTarget=0;points=[[0,0.5],[1,0.5]];portConstraint=eastwest;top=0;left=0;right=0;bottom=0;strokeWidth=1;" vertex="1" parent="808sPghNEl_nRTgC7U6s-1"><mxGeometry y="90" width="180" height="30" as="geometry"/></mxCell><mxCell id="808sPghNEl_nRTgC7U6s-9" value="" style="shape=partialRectangle;connectable=0;fillColor=none;top=0;left=0;bottom=0;right=0;editable=1;overflow=hidden;strokeWidth=1;" vertex="1" parent="808sPghNEl_nRTgC7U6s-8"><mxGeometry width="30" height="30" as="geometry"><mxRectangle width="30" height="30" as="alternateBounds"/></mxGeometry></mxCell><mxCell id="808sPghNEl_nRTgC7U6s-10" value="Row 2" style="shape=partialRectangle;connectable=0;fillColor=none;top=0;left=0;bottom=0;right=0;align=left;spacingLeft=6;overflow=hidden;strokeWidth=1;" vertex="1" parent="808sPghNEl_nRTgC7U6s-8"><mxGeometry x="30" width="150" height="30" as="geometry"><mxRectangle width="150" height="30" as="alternateBounds"/></mxGeometry></mxCell><mxCell id="808sPghNEl_nRTgC7U6s-11" value="" style="shape=tableRow;horizontal=0;startSize=0;swimlaneHead=0;swimlaneBody=0;fillColor=none;collapsible=0;dropTarget=0;points=[[0,0.5],[1,0.5]];portConstraint=eastwest;top=0;left=0;right=0;bottom=0;strokeWidth=1;" vertex="1" parent="808sPghNEl_nRTgC7U6s-1"><mxGeometry y="120" width="180" height="30" as="geometry"/></mxCell><mxCell id="808sPghNEl_nRTgC7U6s-12" value="" style="shape=partialRectangle;connectable=0;fillColor=none;top=0;left=0;bottom=0;right=0;editable=1;overflow=hidden;strokeWidth=1;" vertex="1" parent="808sPghNEl_nRTgC7U6s-11"><mxGeometry width="30" height="30" as="geometry"><mxRectangle width="30" height="30" as="alternateBounds"/></mxGeometry></mxCell><mxCell id="808sPghNEl_nRTgC7U6s-13" value="Row 3" style="shape=partialRectangle;connectable=0;fillColor=none;top=0;left=0;bottom=0;right=0;align=left;spacingLeft=6;overflow=hidden;strokeWidth=1;" vertex="1" parent="808sPghNEl_nRTgC7U6s-11"><mxGeometry x="30" width="150" height="30" as="geometry"><mxRectangle width="150" height="30" as="alternateBounds"/></mxGeometry></mxCell><mxCell id="808sPghNEl_nRTgC7U6s-14" value="PACIENTE" style="shape=table;startSize=30;container=1;collapsible=1;childLayout=tableLayout;fixedRows=1;rowLines=0;fontStyle=1;align=center;resizeLast=1;strokeWidth=1;" vertex="1" parent="1"><mxGeometry x="500" y="20" width="180" height="150" as="geometry"/></mxCell><mxCell id="808sPghNEl_nRTgC7U6s-15" value="" style="shape=tableRow;horizontal=0;startSize=0;swimlaneHead=0;swimlaneBody=0;fillColor=none;collapsible=0;dropTarget=0;points=[[0,0.5],[1,0.5]];portConstraint=eastwest;top=0;left=0;right=0;bottom=1;strokeWidth=1;" vertex="1" parent="808sPghNEl_nRTgC7U6s-14"><mxGeometry y="30" width="180" height="30" as="geometry"/></mxCell><mxCell id="808sPghNEl_nRTgC7U6s-16" value="PK" style="shape=partialRectangle;connectable=0;fillColor=none;top=0;left=0;bottom=0;right=0;fontStyle=1;overflow=hidden;strokeWidth=1;" vertex="1" parent="808sPghNEl_nRTgC7U6s-15"><mxGeometry width="30" height="30" as="geometry"><mxRectangle width="30" height="30" as="alternateBounds"/></mxGeometry></mxCell><mxCell id="808sPghNEl_nRTgC7U6s-17" value="ID PACIENTE" style="shape=partialRectangle;connectable=0;fillColor=none;top=0;left=0;bottom=0;right=0;align=left;spacingLeft=6;fontStyle=5;overflow=hidden;strokeWidth=1;" vertex="1" parent="808sPghNEl_nRTgC7U6s-15"><mxGeometry x="30" width="150" height="30" as="geometry"><mxRectangle width="150" height="30" as="alternateBounds"/></mxGeometry></mxCell><mxCell id="808sPghNEl_nRTgC7U6s-18" value="" style="shape=tableRow;horizontal=0;startSize=0;swimlaneHead=0;swimlaneBody=0;fillColor=none;collapsible=0;dropTarget=0;points=[[0,0.5],[1,0.5]];portConstraint=eastwest;top=0;left=0;right=0;bottom=0;strokeWidth=1;" vertex="1" parent="808sPghNEl_nRTgC7U6s-14"><mxGeometry y="60" width="180" height="30" as="geometry"/></mxCell><mxCell id="808sPghNEl_nRTgC7U6s-19" value="" style="shape=partialRectangle;connectable=0;fillColor=none;top=0;left=0;bottom=0;right=0;editable=1;overflow=hidden;strokeWidth=1;" vertex="1" parent="808sPghNEl_nRTgC7U6s-18"><mxGeometry width="30" height="30" as="geometry"><mxRectangle width="30" height="30" as="alternateBounds"/></mxGeometry></mxCell><mxCell id="808sPghNEl_nRTgC7U6s-20" value="Row 1" style="shape=partialRectangle;connectable=0;fillColor=none;top=0;left=0;bottom=0;right=0;align=left;spacingLeft=6;overflow=hidden;strokeWidth=1;" vertex="1" parent="808sPghNEl_nRTgC7U6s-18"><mxGeometry x="30" width="150" height="30" as="geometry"><mxRectangle width="150" height="30" as="alternateBounds"/></mxGeometry></mxCell><mxCell id="808sPghNEl_nRTgC7U6s-21" value="" style="shape=tableRow;horizontal=0;startSize=0;swimlaneHead=0;swimlaneBody=0;fillColor=none;collapsible=0;dropTarget=0;points=[[0,0.5],[1,0.5]];portConstraint=eastwest;top=0;left=0;right=0;bottom=0;strokeWidth=1;" vertex="1" parent="808sPghNEl_nRTgC7U6s-14"><mxGeometry y="90" width="180" height="30" as="geometry"/></mxCell><mxCell id="808sPghNEl_nRTgC7U6s-22" value="" style="shape=partialRectangle;connectable=0;fillColor=none;top=0;left=0;bottom=0;right=0;editable=1;overflow=hidden;strokeWidth=1;" vertex="1" parent="808sPghNEl_nRTgC7U6s-21"><mxGeometry width="30" height="30" as="geometry"><mxRectangle width="30" height="30" as="alternateBounds"/></mxGeometry></mxCell><mxCell id="808sPghNEl_nRTgC7U6s-23" value="Row 2" style="shape=partialRectangle;connectable=0;fillColor=none;top=0;left=0;bottom=0;right=0;align=left;spacingLeft=6;overflow=hidden;strokeWidth=1;" vertex="1" parent="808sPghNEl_nRTgC7U6s-21"><mxGeometry x="30" width="150" height="30" as="geometry"><mxRectangle width="150" height="30" as="alternateBounds"/></mxGeometry></mxCell><mxCell id="808sPghNEl_nRTgC7U6s-24" value="" style="shape=tableRow;horizontal=0;startSize=0;swimlaneHead=0;swimlaneBody=0;fillColor=none;collapsible=0;dropTarget=0;points=[[0,0.5],[1,0.5]];portConstraint=eastwest;top=0;left=0;right=0;bottom=0;strokeWidth=1;" vertex="1" parent="808sPghNEl_nRTgC7U6s-14"><mxGeometry y="120" width="180" height="30" as="geometry"/></mxCell><mxCell id="808sPghNEl_nRTgC7U6s-25" value="" style="shape=partialRectangle;connectable=0;fillColor=none;top=0;left=0;bottom=0;right=0;editable=1;overflow=hidden;strokeWidth=1;" vertex="1" parent="808sPghNEl_nRTgC7U6s-24"><mxGeometry width="30" height="30" as="geometry"><mxRectangle width="30" height="30" as="alternateBounds"/></mxGeometry></mxCell><mxCell id="808sPghNEl_nRTgC7U6s-26" value="Row 3" style="shape=partialRectangle;connectable=0;fillColor=none;top=0;left=0;bottom=0;right=0;align=left;spacingLeft=6;overflow=hidden;strokeWidth=1;" vertex="1" parent="808sPghNEl_nRTgC7U6s-24"><mxGeometry x="30" width="150" height="30" as="geometry"><mxRectangle width="150" height="30" as="alternateBounds"/></mxGeometry></mxCell><mxCell id="808sPghNEl_nRTgC7U6s-27" value="ESPECIALIDAD" style="shape=table;startSize=30;container=1;collapsible=1;childLayout=tableLayout;fixedRows=1;rowLines=0;fontStyle=1;align=center;resizeLast=1;strokeWidth=1;" vertex="1" parent="1"><mxGeometry x="10" y="310" width="220" height="150" as="geometry"/></mxCell><mxCell id="808sPghNEl_nRTgC7U6s-28" value="" style="shape=tableRow;horizontal=0;startSize=0;swimlaneHead=0;swimlaneBody=0;fillColor=none;collapsible=0;dropTarget=0;points=[[0,0.5],[1,0.5]];portConstraint=eastwest;top=0;left=0;right=0;bottom=1;strokeWidth=1;" vertex="1" parent="808sPghNEl_nRTgC7U6s-27"><mxGeometry y="30" width="220" height="30" as="geometry"/></mxCell><mxCell id="808sPghNEl_nRTgC7U6s-29" value="PK" style="shape=partialRectangle;connectable=0;fillColor=none;top=0;left=0;bottom=0;right=0;fontStyle=1;overflow=hidden;strokeWidth=1;" vertex="1" parent="808sPghNEl_nRTgC7U6s-28"><mxGeometry width="30" height="30" as="geometry"><mxRectangle width="30" height="30" as="alternateBounds"/></mxGeometry></mxCell><mxCell id="808sPghNEl_nRTgC7U6s-30" value="ID ESPECIALIDAD" style="shape=partialRectangle;connectable=0;fillColor=none;top=0;left=0;bottom=0;right=0;align=left;spacingLeft=6;fontStyle=5;overflow=hidden;strokeWidth=1;" vertex="1" parent="808sPghNEl_nRTgC7U6s-28"><mxGeometry x="30" width="190" height="30" as="geometry"><mxRectangle width="190" height="30" as="alternateBounds"/></mxGeometry></mxCell><mxCell id="808sPghNEl_nRTgC7U6s-31" value="" style="shape=tableRow;horizontal=0;startSize=0;swimlaneHead=0;swimlaneBody=0;fillColor=none;collapsible=0;dropTarget=0;points=[[0,0.5],[1,0.5]];portConstraint=eastwest;top=0;left=0;right=0;bottom=0;strokeWidth=1;" vertex="1" parent="808sPghNEl_nRTgC7U6s-27"><mxGeometry y="60" width="220" height="30" as="geometry"/></mxCell><mxCell id="808sPghNEl_nRTgC7U6s-32" value="" style="shape=partialRectangle;connectable=0;fillColor=none;top=0;left=0;bottom=0;right=0;editable=1;overflow=hidden;strokeWidth=1;" vertex="1" parent="808sPghNEl_nRTgC7U6s-31"><mxGeometry width="30" height="30" as="geometry"><mxRectangle width="30" height="30" as="alternateBounds"/></mxGeometry></mxCell><mxCell id="808sPghNEl_nRTgC7U6s-33" value="NOMBRE ESPECIALIDAD" style="shape=partialRectangle;connectable=0;fillColor=none;top=0;left=0;bottom=0;right=0;align=left;spacingLeft=6;overflow=hidden;strokeWidth=1;" vertex="1" parent="808sPghNEl_nRTgC7U6s-31"><mxGeometry x="30" width="190" height="30" as="geometry"><mxRectangle width="190" height="30" as="alternateBounds"/></mxGeometry></mxCell><mxCell id="808sPghNEl_nRTgC7U6s-34" value="" style="shape=tableRow;horizontal=0;startSize=0;swimlaneHead=0;swimlaneBody=0;fillColor=none;collapsible=0;dropTarget=0;points=[[0,0.5],[1,0.5]];portConstraint=eastwest;top=0;left=0;right=0;bottom=0;strokeWidth=1;" vertex="1" parent="808sPghNEl_nRTgC7U6s-27"><mxGeometry y="90" width="220" height="30" as="geometry"/></mxCell><mxCell id="808sPghNEl_nRTgC7U6s-35" value="" style="shape=partialRectangle;connectable=0;fillColor=none;top=0;left=0;bottom=0;right=0;editable=1;overflow=hidden;strokeWidth=1;" vertex="1" parent="808sPghNEl_nRTgC7U6s-34"><mxGeometry width="30" height="30" as="geometry"><mxRectangle width="30" height="30" as="alternateBounds"/></mxGeometry></mxCell><mxCell id="808sPghNEl_nRTgC7U6s-36" value="TIPO ESPECIALIDAD" style="shape=partialRectangle;connectable=0;fillColor=none;top=0;left=0;bottom=0;right=0;align=left;spacingLeft=6;overflow=hidden;strokeWidth=1;" vertex="1" parent="808sPghNEl_nRTgC7U6s-34"><mxGeometry x="30" width="190" height="30" as="geometry"><mxRectangle width="190" height="30" as="alternateBounds"/></mxGeometry></mxCell><mxCell id="808sPghNEl_nRTgC7U6s-37" value="" style="shape=tableRow;horizontal=0;startSize=0;swimlaneHead=0;swimlaneBody=0;fillColor=none;collapsible=0;dropTarget=0;points=[[0,0.5],[1,0.5]];portConstraint=eastwest;top=0;left=0;right=0;bottom=0;strokeWidth=1;" vertex="1" parent="808sPghNEl_nRTgC7U6s-27"><mxGeometry y="120" width="220" height="30" as="geometry"/></mxCell><mxCell id="808sPghNEl_nRTgC7U6s-38" value="" style="shape=partialRectangle;connectable=0;fillColor=none;top=0;left=0;bottom=0;right=0;editable=1;overflow=hidden;strokeWidth=1;" vertex="1" parent="808sPghNEl_nRTgC7U6s-37"><mxGeometry width="30" height="30" as="geometry"><mxRectangle width="30" height="30" as="alternateBounds"/></mxGeometry></mxCell><mxCell id="808sPghNEl_nRTgC7U6s-39" value="IDESCRIPCION ESPECIALIDAD" style="shape=partialRectangle;connectable=0;fillColor=none;top=0;left=0;bottom=0;right=0;align=left;spacingLeft=6;overflow=hidden;strokeWidth=1;" vertex="1" parent="808sPghNEl_nRTgC7U6s-37"><mxGeometry x="30" width="190" height="30" as="geometry"><mxRectangle width="190" height="30" as="alternateBounds"/></mxGeometry></mxCell><mxCell id="808sPghNEl_nRTgC7U6s-40" value="PROFESIONISTA" style="shape=table;startSize=30;container=1;collapsible=1;childLayout=tableLayout;fixedRows=1;rowLines=0;fontStyle=1;align=center;resizeLast=1;strokeWidth=1;" vertex="1" parent="1"><mxGeometry x="140" y="10" width="180" height="180" as="geometry"/></mxCell><mxCell id="808sPghNEl_nRTgC7U6s-41" value="" style="shape=tableRow;horizontal=0;startSize=0;swimlaneHead=0;swimlaneBody=0;fillColor=none;collapsible=0;dropTarget=0;points=[[0,0.5],[1,0.5]];portConstraint=eastwest;top=0;left=0;right=0;bottom=1;strokeWidth=1;" vertex="1" parent="808sPghNEl_nRTgC7U6s-40"><mxGeometry y="30" width="180" height="30" as="geometry"/></mxCell><mxCell id="808sPghNEl_nRTgC7U6s-42" value="PK" style="shape=partialRectangle;connectable=0;fillColor=none;top=0;left=0;bottom=0;right=0;fontStyle=1;overflow=hidden;strokeWidth=1;" vertex="1" parent="808sPghNEl_nRTgC7U6s-41"><mxGeometry width="30" height="30" as="geometry"><mxRectangle width="30" height="30" as="alternateBounds"/></mxGeometry></mxCell><mxCell id="808sPghNEl_nRTgC7U6s-43" value="ID PROFESIONISTA" style="shape=partialRectangle;connectable=0;fillColor=none;top=0;left=0;bottom=0;right=0;align=left;spacingLeft=6;fontStyle=5;overflow=hidden;strokeWidth=1;" vertex="1" parent="808sPghNEl_nRTgC7U6s-41"><mxGeometry x="30" width="150" height="30" as="geometry"><mxRectangle width="150" height="30" as="alternateBounds"/></mxGeometry></mxCell><mxCell id="808sPghNEl_nRTgC7U6s-44" value="" style="shape=tableRow;horizontal=0;startSize=0;swimlaneHead=0;swimlaneBody=0;fillColor=none;collapsible=0;dropTarget=0;points=[[0,0.5],[1,0.5]];portConstraint=eastwest;top=0;left=0;right=0;bottom=0;strokeWidth=1;" vertex="1" parent="808sPghNEl_nRTgC7U6s-40"><mxGeometry y="60" width="180" height="30" as="geometry"/></mxCell><mxCell id="808sPghNEl_nRTgC7U6s-45" value="" style="shape=partialRectangle;connectable=0;fillColor=none;top=0;left=0;bottom=0;right=0;editable=1;overflow=hidden;strokeWidth=1;" vertex="1" parent="808sPghNEl_nRTgC7U6s-44"><mxGeometry width="30" height="30" as="geometry"><mxRectangle width="30" height="30" as="alternateBounds"/></mxGeometry></mxCell><mxCell id="808sPghNEl_nRTgC7U6s-46" value="NOMBRE PROFESION" style="shape=partialRectangle;connectable=0;fillColor=none;top=0;left=0;bottom=0;right=0;align=left;spacingLeft=6;overflow=hidden;strokeWidth=1;" vertex="1" parent="808sPghNEl_nRTgC7U6s-44"><mxGeometry x="30" width="150" height="30" as="geometry"><mxRectangle width="150" height="30" as="alternateBounds"/></mxGeometry></mxCell><mxCell id="808sPghNEl_nRTgC7U6s-47" value="" style="shape=tableRow;horizontal=0;startSize=0;swimlaneHead=0;swimlaneBody=0;fillColor=none;collapsible=0;dropTarget=0;points=[[0,0.5],[1,0.5]];portConstraint=eastwest;top=0;left=0;right=0;bottom=0;strokeWidth=1;" vertex="1" parent="808sPghNEl_nRTgC7U6s-40"><mxGeometry y="90" width="180" height="30" as="geometry"/></mxCell><mxCell id="808sPghNEl_nRTgC7U6s-48" value="FK" style="shape=partialRectangle;connectable=0;fillColor=none;top=0;left=0;bottom=0;right=0;editable=1;overflow=hidden;strokeWidth=1;" vertex="1" parent="808sPghNEl_nRTgC7U6s-47"><mxGeometry width="30" height="30" as="geometry"><mxRectangle width="30" height="30" as="alternateBounds"/></mxGeometry></mxCell><mxCell id="808sPghNEl_nRTgC7U6s-49" value="ID INFORMACIONPER" style="shape=partialRectangle;connectable=0;fillColor=none;top=0;left=0;bottom=0;right=0;align=left;spacingLeft=6;overflow=hidden;strokeWidth=1;" vertex="1" parent="808sPghNEl_nRTgC7U6s-47"><mxGeometry x="30" width="150" height="30" as="geometry"><mxRectangle width="150" height="30" as="alternateBounds"/></mxGeometry></mxCell><mxCell id="808sPghNEl_nRTgC7U6s-50" value="" style="shape=tableRow;horizontal=0;startSize=0;swimlaneHead=0;swimlaneBody=0;fillColor=none;collapsible=0;dropTarget=0;points=[[0,0.5],[1,0.5]];portConstraint=eastwest;top=0;left=0;right=0;bottom=0;strokeWidth=1;" vertex="1" parent="808sPghNEl_nRTgC7U6s-40"><mxGeometry y="120" width="180" height="30" as="geometry"/></mxCell><mxCell id="808sPghNEl_nRTgC7U6s-51" value="FL" style="shape=partialRectangle;connectable=0;fillColor=none;top=0;left=0;bottom=0;right=0;editable=1;overflow=hidden;strokeWidth=1;" vertex="1" parent="808sPghNEl_nRTgC7U6s-50"><mxGeometry width="30" height="30" as="geometry"><mxRectangle width="30" height="30" as="alternateBounds"/></mxGeometry></mxCell><mxCell id="808sPghNEl_nRTgC7U6s-52" value="ID PACIENTE" style="shape=partialRectangle;connectable=0;fillColor=none;top=0;left=0;bottom=0;right=0;align=left;spacingLeft=6;overflow=hidden;strokeWidth=1;" vertex="1" parent="808sPghNEl_nRTgC7U6s-50"><mxGeometry x="30" width="150" height="30" as="geometry"><mxRectangle width="150" height="30" as="alternateBounds"/></mxGeometry></mxCell><mxCell id="808sPghNEl_nRTgC7U6s-53" value="HOSPITAL" style="shape=table;startSize=40;container=1;collapsible=1;childLayout=tableLayout;fixedRows=1;rowLines=0;fontStyle=1;align=center;resizeLast=1;strokeWidth=1;" vertex="1" parent="1"><mxGeometry x="-190" y="30" width="180" height="160" as="geometry"/></mxCell><mxCell id="808sPghNEl_nRTgC7U6s-54" value="" style="shape=tableRow;horizontal=0;startSize=0;swimlaneHead=0;swimlaneBody=0;fillColor=none;collapsible=0;dropTarget=0;points=[[0,0.5],[1,0.5]];portConstraint=eastwest;top=0;left=0;right=0;bottom=1;strokeWidth=1;" vertex="1" parent="808sPghNEl_nRTgC7U6s-53"><mxGeometry y="40" width="180" height="30" as="geometry"/></mxCell><mxCell id="808sPghNEl_nRTgC7U6s-55" value="PK" style="shape=partialRectangle;connectable=0;fillColor=none;top=0;left=0;bottom=0;right=0;fontStyle=1;overflow=hidden;strokeWidth=1;" vertex="1" parent="808sPghNEl_nRTgC7U6s-54"><mxGeometry width="30" height="30" as="geometry"><mxRectangle width="30" height="30" as="alternateBounds"/></mxGeometry></mxCell><mxCell id="808sPghNEl_nRTgC7U6s-56" value="ID HOSPITAL" style="shape=partialRectangle;connectable=0;fillColor=none;top=0;left=0;bottom=0;right=0;align=left;spacingLeft=6;fontStyle=5;overflow=hidden;strokeWidth=1;" vertex="1" parent="808sPghNEl_nRTgC7U6s-54"><mxGeometry x="30" width="150" height="30" as="geometry"><mxRectangle width="150" height="30" as="alternateBounds"/></mxGeometry></mxCell><mxCell id="808sPghNEl_nRTgC7U6s-57" value="" style="shape=tableRow;horizontal=0;startSize=0;swimlaneHead=0;swimlaneBody=0;fillColor=none;collapsible=0;dropTarget=0;points=[[0,0.5],[1,0.5]];portConstraint=eastwest;top=0;left=0;right=0;bottom=0;strokeWidth=1;" vertex="1" parent="808sPghNEl_nRTgC7U6s-53"><mxGeometry y="70" width="180" height="30" as="geometry"/></mxCell><mxCell id="808sPghNEl_nRTgC7U6s-58" value="" style="shape=partialRectangle;connectable=0;fillColor=none;top=0;left=0;bottom=0;right=0;editable=1;overflow=hidden;strokeWidth=1;" vertex="1" parent="808sPghNEl_nRTgC7U6s-57"><mxGeometry width="30" height="30" as="geometry"><mxRectangle width="30" height="30" as="alternateBounds"/></mxGeometry></mxCell><mxCell id="808sPghNEl_nRTgC7U6s-59" value="NOMBRE HOSPITAL" style="shape=partialRectangle;connectable=0;fillColor=none;top=0;left=0;bottom=0;right=0;align=left;spacingLeft=6;overflow=hidden;strokeWidth=1;" vertex="1" parent="808sPghNEl_nRTgC7U6s-57"><mxGeometry x="30" width="150" height="30" as="geometry"><mxRectangle width="150" height="30" as="alternateBounds"/></mxGeometry></mxCell><mxCell id="808sPghNEl_nRTgC7U6s-60" value="" style="shape=tableRow;horizontal=0;startSize=0;swimlaneHead=0;swimlaneBody=0;fillColor=none;collapsible=0;dropTarget=0;points=[[0,0.5],[1,0.5]];portConstraint=eastwest;top=0;left=0;right=0;bottom=0;strokeWidth=1;" vertex="1" parent="808sPghNEl_nRTgC7U6s-53"><mxGeometry y="100" width="180" height="30" as="geometry"/></mxCell><mxCell id="808sPghNEl_nRTgC7U6s-61" value="" style="shape=partialRectangle;connectable=0;fillColor=none;top=0;left=0;bottom=0;right=0;editable=1;overflow=hidden;strokeWidth=1;" vertex="1" parent="808sPghNEl_nRTgC7U6s-60"><mxGeometry width="30" height="30" as="geometry"><mxRectangle width="30" height="30" as="alternateBounds"/></mxGeometry></mxCell><mxCell id="808sPghNEl_nRTgC7U6s-62" value="UBICACION HOSPITAL" style="shape=partialRectangle;connectable=0;fillColor=none;top=0;left=0;bottom=0;right=0;align=left;spacingLeft=6;overflow=hidden;strokeWidth=1;" vertex="1" parent="808sPghNEl_nRTgC7U6s-60"><mxGeometry x="30" width="150" height="30" as="geometry"><mxRectangle width="150" height="30" as="alternateBounds"/></mxGeometry></mxCell><mxCell id="808sPghNEl_nRTgC7U6s-63" value="" style="shape=tableRow;horizontal=0;startSize=0;swimlaneHead=0;swimlaneBody=0;fillColor=none;collapsible=0;dropTarget=0;points=[[0,0.5],[1,0.5]];portConstraint=eastwest;top=0;left=0;right=0;bottom=0;strokeWidth=1;" vertex="1" parent="808sPghNEl_nRTgC7U6s-53"><mxGeometry y="130" width="180" height="30" as="geometry"/></mxCell><mxCell id="808sPghNEl_nRTgC7U6s-64" value="FK" style="shape=partialRectangle;connectable=0;fillColor=none;top=0;left=0;bottom=0;right=0;editable=1;overflow=hidden;strokeWidth=1;" vertex="1" parent="808sPghNEl_nRTgC7U6s-63"><mxGeometry width="30" height="30" as="geometry"><mxRectangle width="30" height="30" as="alternateBounds"/></mxGeometry></mxCell><mxCell id="808sPghNEl_nRTgC7U6s-65" value="ID PROFESIONISTA" style="shape=partialRectangle;connectable=0;fillColor=none;top=0;left=0;bottom=0;right=0;align=left;spacingLeft=6;overflow=hidden;strokeWidth=1;" vertex="1" parent="808sPghNEl_nRTgC7U6s-63"><mxGeometry x="30" width="150" height="30" as="geometry"><mxRectangle width="150" height="30" as="alternateBounds"/></mxGeometry></mxCell><mxCell id="808sPghNEl_nRTgC7U6s-66" value="ID INFORMACIONPER" style="shape=table;startSize=30;container=1;collapsible=1;childLayout=tableLayout;fixedRows=1;rowLines=0;fontStyle=1;align=center;resizeLast=1;strokeWidth=1;" vertex="1" parent="1"><mxGeometry x="360" y="320" width="180" height="230" as="geometry"/></mxCell><mxCell id="808sPghNEl_nRTgC7U6s-67" value="" style="shape=tableRow;horizontal=0;startSize=0;swimlaneHead=0;swimlaneBody=0;fillColor=none;collapsible=0;dropTarget=0;points=[[0,0.5],[1,0.5]];portConstraint=eastwest;top=0;left=0;right=0;bottom=1;strokeWidth=1;" vertex="1" parent="808sPghNEl_nRTgC7U6s-66"><mxGeometry y="30" width="180" height="30" as="geometry"/></mxCell><mxCell id="808sPghNEl_nRTgC7U6s-68" value="PK" style="shape=partialRectangle;connectable=0;fillColor=none;top=0;left=0;bottom=0;right=0;fontStyle=1;overflow=hidden;strokeWidth=1;" vertex="1" parent="808sPghNEl_nRTgC7U6s-67"><mxGeometry width="30" height="30" as="geometry"><mxRectangle width="30" height="30" as="alternateBounds"/></mxGeometry></mxCell><mxCell id="808sPghNEl_nRTgC7U6s-69" value="ID PACIENTE" style="shape=partialRectangle;connectable=0;fillColor=none;top=0;left=0;bottom=0;right=0;align=left;spacingLeft=6;fontStyle=5;overflow=hidden;strokeWidth=1;" vertex="1" parent="808sPghNEl_nRTgC7U6s-67"><mxGeometry x="30" width="150" height="30" as="geometry"><mxRectangle width="150" height="30" as="alternateBounds"/></mxGeometry></mxCell><mxCell id="808sPghNEl_nRTgC7U6s-70" value="" style="shape=tableRow;horizontal=0;startSize=0;swimlaneHead=0;swimlaneBody=0;fillColor=none;collapsible=0;dropTarget=0;points=[[0,0.5],[1,0.5]];portConstraint=eastwest;top=0;left=0;right=0;bottom=0;strokeWidth=1;" vertex="1" parent="808sPghNEl_nRTgC7U6s-66"><mxGeometry y="60" width="180" height="30" as="geometry"/></mxCell><mxCell id="808sPghNEl_nRTgC7U6s-71" value="" style="shape=partialRectangle;connectable=0;fillColor=none;top=0;left=0;bottom=0;right=0;editable=1;overflow=hidden;strokeWidth=1;" vertex="1" parent="808sPghNEl_nRTgC7U6s-70"><mxGeometry width="30" height="30" as="geometry"><mxRectangle width="30" height="30" as="alternateBounds"/></mxGeometry></mxCell><mxCell id="808sPghNEl_nRTgC7U6s-72" value="NOMBRE" style="shape=partialRectangle;connectable=0;fillColor=none;top=0;left=0;bottom=0;right=0;align=left;spacingLeft=6;overflow=hidden;strokeWidth=1;" vertex="1" parent="808sPghNEl_nRTgC7U6s-70"><mxGeometry x="30" width="150" height="30" as="geometry"><mxRectangle width="150" height="30" as="alternateBounds"/></mxGeometry></mxCell><mxCell id="808sPghNEl_nRTgC7U6s-73" value="" style="shape=tableRow;horizontal=0;startSize=0;swimlaneHead=0;swimlaneBody=0;fillColor=none;collapsible=0;dropTarget=0;points=[[0,0.5],[1,0.5]];portConstraint=eastwest;top=0;left=0;right=0;bottom=0;strokeWidth=1;" vertex="1" parent="808sPghNEl_nRTgC7U6s-66"><mxGeometry y="90" width="180" height="30" as="geometry"/></mxCell><mxCell id="808sPghNEl_nRTgC7U6s-74" value="" style="shape=partialRectangle;connectable=0;fillColor=none;top=0;left=0;bottom=0;right=0;editable=1;overflow=hidden;strokeWidth=1;" vertex="1" parent="808sPghNEl_nRTgC7U6s-73"><mxGeometry width="30" height="30" as="geometry"><mxRectangle width="30" height="30" as="alternateBounds"/></mxGeometry></mxCell><mxCell id="808sPghNEl_nRTgC7U6s-75" value="APELLIDO P" style="shape=partialRectangle;connectable=0;fillColor=none;top=0;left=0;bottom=0;right=0;align=left;spacingLeft=6;overflow=hidden;strokeWidth=1;" vertex="1" parent="808sPghNEl_nRTgC7U6s-73"><mxGeometry x="30" width="150" height="30" as="geometry"><mxRectangle width="150" height="30" as="alternateBounds"/></mxGeometry></mxCell><mxCell id="808sPghNEl_nRTgC7U6s-76" value="" style="shape=tableRow;horizontal=0;startSize=0;swimlaneHead=0;swimlaneBody=0;fillColor=none;collapsible=0;dropTarget=0;points=[[0,0.5],[1,0.5]];portConstraint=eastwest;top=0;left=0;right=0;bottom=0;strokeWidth=1;" vertex="1" parent="808sPghNEl_nRTgC7U6s-66"><mxGeometry y="120" width="180" height="30" as="geometry"/></mxCell><mxCell id="808sPghNEl_nRTgC7U6s-77" value="" style="shape=partialRectangle;connectable=0;fillColor=none;top=0;left=0;bottom=0;right=0;editable=1;overflow=hidden;strokeWidth=1;" vertex="1" parent="808sPghNEl_nRTgC7U6s-76"><mxGeometry width="30" height="30" as="geometry"><mxRectangle width="30" height="30" as="alternateBounds"/></mxGeometry></mxCell><mxCell id="808sPghNEl_nRTgC7U6s-78" value="APELLIDO M" style="shape=partialRectangle;connectable=0;fillColor=none;top=0;left=0;bottom=0;right=0;align=left;spacingLeft=6;overflow=hidden;strokeWidth=1;" vertex="1" parent="808sPghNEl_nRTgC7U6s-76"><mxGeometry x="30" width="150" height="30" as="geometry"><mxRectangle width="150" height="30" as="alternateBounds"/></mxGeometry></mxCell><mxCell id="808sPghNEl_nRTgC7U6s-93" value="ID ESPECIALIDAD" style="shape=partialRectangle;connectable=0;fillColor=none;top=0;left=0;bottom=0;right=0;align=left;spacingLeft=6;overflow=hidden;strokeWidth=1;" vertex="1" parent="1"><mxGeometry x="170" y="160" width="150" height="30" as="geometry"><mxRectangle width="150" height="30" as="alternateBounds"/></mxGeometry></mxCell><mxCell id="808sPghNEl_nRTgC7U6s-94" value="FK" style="shape=partialRectangle;connectable=0;fillColor=none;top=0;left=0;bottom=0;right=0;editable=1;overflow=hidden;strokeWidth=1;" vertex="1" parent="1"><mxGeometry x="140" y="160" width="30" height="30" as="geometry"><mxRectangle width="30" height="30" as="alternateBounds"/></mxGeometry></mxCell><mxCell id="808sPghNEl_nRTgC7U6s-95" value="" style="shape=tableRow;horizontal=0;startSize=0;swimlaneHead=0;swimlaneBody=0;fillColor=none;collapsible=0;dropTarget=0;points=[[0,0.5],[1,0.5]];portConstraint=eastwest;top=0;left=0;right=0;bottom=0;strokeWidth=1;" vertex="1" parent="1"><mxGeometry x="360" y="480" width="180" height="30" as="geometry"/></mxCell><mxCell id="808sPghNEl_nRTgC7U6s-96" value="" style="shape=partialRectangle;connectable=0;fillColor=none;top=0;left=0;bottom=0;right=0;editable=1;overflow=hidden;strokeWidth=1;" vertex="1" parent="808sPghNEl_nRTgC7U6s-95"><mxGeometry width="30" height="30" as="geometry"><mxRectangle width="30" height="30" as="alternateBounds"/></mxGeometry></mxCell><mxCell id="808sPghNEl_nRTgC7U6s-97" value="TELEFONO" style="shape=partialRectangle;connectable=0;fillColor=none;top=0;left=0;bottom=0;right=0;align=left;spacingLeft=6;overflow=hidden;strokeWidth=1;" vertex="1" parent="808sPghNEl_nRTgC7U6s-95"><mxGeometry x="30" width="150" height="30" as="geometry"><mxRectangle width="150" height="30" as="alternateBounds"/></mxGeometry></mxCell><mxCell id="808sPghNEl_nRTgC7U6s-98" value="" style="shape=tableRow;horizontal=0;startSize=0;swimlaneHead=0;swimlaneBody=0;fillColor=none;collapsible=0;dropTarget=0;points=[[0,0.5],[1,0.5]];portConstraint=eastwest;top=0;left=0;right=0;bottom=0;strokeWidth=1;" vertex="1" parent="1"><mxGeometry x="360" y="520" width="180" height="30" as="geometry"/></mxCell><mxCell id="808sPghNEl_nRTgC7U6s-99" value="" style="shape=partialRectangle;connectable=0;fillColor=none;top=0;left=0;bottom=0;right=0;editable=1;overflow=hidden;strokeWidth=1;" vertex="1" parent="808sPghNEl_nRTgC7U6s-98"><mxGeometry width="30" height="30" as="geometry"><mxRectangle width="30" height="30" as="alternateBounds"/></mxGeometry></mxCell><mxCell id="808sPghNEl_nRTgC7U6s-100" value="FECHA NACIMIENTO" style="shape=partialRectangle;connectable=0;fillColor=none;top=0;left=0;bottom=0;right=0;align=left;spacingLeft=6;overflow=hidden;strokeWidth=1;" vertex="1" parent="808sPghNEl_nRTgC7U6s-98"><mxGeometry x="30" width="150" height="30" as="geometry"><mxRectangle width="150" height="30" as="alternateBounds"/></mxGeometry></mxCell></root></mxGraphModel></diagram><diagram id="NGH42IyjyhBsGydpp_al" name="Page-3"><mxGraphModel dx="571" dy="475" grid="1" gridSize="10" guides="1" tooltips="1" connect="1" arrows="1" fold="1" page="1" pageScale="1" pageWidth="850" pageHeight="1100" math="0" shadow="0"><root><mxCell id="0"/><mxCell id="1" parent="0"/></root></mxGraphModel></diagram><diagram id="KG4I8vfN59rD3noKUTiU" name="Page-4"><mxGraphModel dx="571" dy="475" grid="1" gridSize="10" guides="1" tooltips="1" connect="1" arrows="1" fold="1" page="1" pageScale="1" pageWidth="850" pageHeight="1100" math="0" shadow="0"><root><mxCell id="0"/><mxCell id="1" parent="0"/></root></mxGraphModel></diagram><diagram id="byVz5nxEcaIHoDiLvmk0" name="Page-5"><mxGraphModel dx="571" dy="475" grid="1" gridSize="10" guides="1" tooltips="1" connect="1" arrows="1" fold="1" page="1" pageScale="1" pageWidth="850" pageHeight="1100" math="0" shadow="0"><root><mxCell id="0"/><mxCell id="1" parent="0"/></root></mxGraphModel></diagram></mxfile>